<svg width="9" height="7" viewBox="0 0 9 7" fill="none" xmlns="http://www.w3.org/2000/svg">
<path d="M9 1.367C9 1.52413 8.94581 1.65769 8.83742 1.76768L4.63355 6.03367L3.84387 6.83502C3.73548 6.94501 3.60387 7 3.44903 7C3.29419 7 3.16258 6.94501 3.05419 6.83502L2.26452 6.03367L0.162581 3.90067C0.0541936 3.79068 0 3.65713 0 3.5C0 3.34287 0.0541936 3.20932 0.162581 3.09933L0.952258 2.29798C1.06065 2.18799 1.19226 2.133 1.3471 2.133C1.50194 2.133 1.63355 2.18799 1.74194 2.29798L3.44903 4.0362L7.25806 0.164983C7.36645 0.0549944 7.49806 0 7.6529 0C7.80774 0 7.93935 0.0549944 8.04774 0.164983L8.83742 0.96633C8.94581 1.07632 9 1.20988 9 1.367Z" fill="white"/>
</svg>
