<svg width="40" height="40" viewBox="0 0 40 40" fill="none" xmlns="http://www.w3.org/2000/svg">
<path d="M20 22.5C21.3807 22.5 22.5 21.3807 22.5 20C22.5 18.6193 21.3807 17.5 20 17.5C18.6193 17.5 17.5 18.6193 17.5 20C17.5 21.3807 18.6193 22.5 20 22.5Z" stroke="white" stroke-width="1.5" stroke-miterlimit="10" stroke-linecap="round" stroke-linejoin="round"/>
<path d="M11.6667 20.7334V19.2667C11.6667 18.4 12.375 17.6834 13.25 17.6834C14.7584 17.6834 15.375 16.6167 14.6167 15.3084C14.1834 14.5584 14.4417 13.5834 15.2 13.15L16.6417 12.325C17.3 11.9334 18.15 12.1667 18.5417 12.825L18.6334 12.9834C19.3834 14.2917 20.6167 14.2917 21.375 12.9834L21.4667 12.825C21.8584 12.1667 22.7084 11.9334 23.3667 12.325L24.8084 13.15C25.5667 13.5834 25.825 14.5584 25.3917 15.3084C24.6334 16.6167 25.25 17.6834 26.7584 17.6834C27.625 17.6834 28.3417 18.3917 28.3417 19.2667V20.7334C28.3417 21.6 27.6334 22.3167 26.7584 22.3167C25.25 22.3167 24.6334 23.3834 25.3917 24.6917C25.825 25.45 25.5667 26.4167 24.8084 26.85L23.3667 27.675C22.7084 28.0667 21.8584 27.8334 21.4667 27.175L21.375 27.0167C20.625 25.7084 19.3917 25.7084 18.6334 27.0167L18.5417 27.175C18.15 27.8334 17.3 28.0667 16.6417 27.675L15.2 26.85C14.4417 26.4167 14.1834 25.4417 14.6167 24.6917C15.375 23.3834 14.7584 22.3167 13.25 22.3167C12.375 22.3167 11.6667 21.6 11.6667 20.7334Z" stroke="white" stroke-width="1.5" stroke-miterlimit="10" stroke-linecap="round" stroke-linejoin="round"/>
</svg>
